<?xml version="1.0" encoding="UTF-8" standalone="no"?>
<!-- Created with Inkscape (http://www.inkscape.org/) -->
<svg
   xmlns:dc="http://purl.org/dc/elements/1.1/"
   xmlns:cc="http://web.resource.org/cc/"
   xmlns:rdf="http://www.w3.org/1999/02/22-rdf-syntax-ns#"
   xmlns:svg="http://www.w3.org/2000/svg"
   xmlns="http://www.w3.org/2000/svg"
   xmlns:xlink="http://www.w3.org/1999/xlink"
   xmlns:sodipodi="http://sodipodi.sourceforge.net/DTD/sodipodi-0.dtd"
   xmlns:inkscape="http://www.inkscape.org/namespaces/inkscape"
   width="744.09448819"
   height="1052.3622047"
   id="svg3663"
   sodipodi:version="0.32"
   inkscape:version="0.45"
   sodipodi:docbase="/home/jerkeby/devel/fai-gui/repo/svn/fai/people/kugg/fai-gui"
   sodipodi:docname="logo_ideas.svg"
   inkscape:output_extension="org.inkscape.output.svg.inkscape"
   sodipodi:modified="true">
  <defs
     id="defs3665">
    <linearGradient
       id="linearGradient3890">
      <stop
         id="stop3892"
         offset="0"
         style="stop-color:#ffffff;stop-opacity:1;" />
      <stop
         id="stop3894"
         offset="1"
         style="stop-color:#ffffff;stop-opacity:0;" />
    </linearGradient>
    <linearGradient
       inkscape:collect="always"
       id="linearGradient3878">
      <stop
         style="stop-color:#1db9d3;stop-opacity:1;"
         offset="0"
         id="stop3880" />
      <stop
         style="stop-color:#1db9d3;stop-opacity:0;"
         offset="1"
         id="stop3882" />
    </linearGradient>
    <linearGradient
       id="linearGradient3858">
      <stop
         style="stop-color:#71eadf;stop-opacity:1;"
         offset="0"
         id="stop3860" />
      <stop
         id="stop3866"
         offset="0.5"
         style="stop-color:#449bc8;stop-opacity:1;" />
      <stop
         style="stop-color:#09403e;stop-opacity:1;"
         offset="1"
         id="stop3862" />
    </linearGradient>
    <linearGradient
       inkscape:collect="always"
       id="linearGradient3743">
      <stop
         style="stop-color:#000000;stop-opacity:1;"
         offset="0"
         id="stop3745" />
      <stop
         style="stop-color:#000000;stop-opacity:0;"
         offset="1"
         id="stop3747" />
    </linearGradient>
    <linearGradient
       id="linearGradient3693">
      <stop
         style="stop-color:#ffffff;stop-opacity:1;"
         offset="0"
         id="stop3695" />
      <stop
         id="stop3705"
         offset="0.25"
         style="stop-color:#3ad611;stop-opacity:0.74901962;" />
      <stop
         id="stop3701"
         offset="0.5"
         style="stop-color:#41bc4d;stop-opacity:1;" />
      <stop
         style="stop-color:#58bf3d;stop-opacity:0.24705882;"
         offset="0.75"
         id="stop3703" />
      <stop
         style="stop-color:#ffffff;stop-opacity:1;"
         offset="1"
         id="stop3697" />
    </linearGradient>
    <linearGradient
       inkscape:collect="always"
       xlink:href="#linearGradient3743"
       id="linearGradient3751"
       x1="219.5"
       y1="262.36218"
       x2="380.5"
       y2="262.36218"
       gradientUnits="userSpaceOnUse" />
    <linearGradient
       inkscape:collect="always"
       xlink:href="#linearGradient3743"
       id="linearGradient3779"
       gradientUnits="userSpaceOnUse"
       x1="219.5"
       y1="262.36218"
       x2="380.5"
       y2="262.36218" />
    <linearGradient
       inkscape:collect="always"
       xlink:href="#linearGradient3743"
       id="linearGradient3805"
       gradientUnits="userSpaceOnUse"
       gradientTransform="translate(-57.92976,-4.4694948)"
       x1="360"
       y1="263.2924"
       x2="447.92976"
       y2="263.2924" />
    <linearGradient
       inkscape:collect="always"
       xlink:href="#linearGradient3743"
       id="linearGradient3807"
       gradientUnits="userSpaceOnUse"
       gradientTransform="translate(-51.822022,1.3555017)"
       x1="360"
       y1="263.2924"
       x2="447.92976"
       y2="263.2924" />
    <linearGradient
       inkscape:collect="always"
       xlink:href="#linearGradient3743"
       id="linearGradient3809"
       gradientUnits="userSpaceOnUse"
       x1="219.5"
       y1="262.36218"
       x2="380.5"
       y2="262.36218" />
    <linearGradient
       inkscape:collect="always"
       xlink:href="#linearGradient3743"
       id="linearGradient3811"
       gradientUnits="userSpaceOnUse"
       x1="219.5"
       y1="262.36218"
       x2="380.5"
       y2="262.36218" />
    <linearGradient
       inkscape:collect="always"
       xlink:href="#linearGradient3743"
       id="linearGradient3813"
       gradientUnits="userSpaceOnUse"
       x1="219.5"
       y1="262.36218"
       x2="380.5"
       y2="262.36218" />
    <linearGradient
       inkscape:collect="always"
       xlink:href="#linearGradient3743"
       id="linearGradient3815"
       gradientUnits="userSpaceOnUse"
       x1="219.5"
       y1="262.36218"
       x2="380.5"
       y2="262.36218" />
    <linearGradient
       inkscape:collect="always"
       xlink:href="#linearGradient3743"
       id="linearGradient3817"
       gradientUnits="userSpaceOnUse"
       x1="219.5"
       y1="262.36218"
       x2="380.5"
       y2="262.36218" />
    <linearGradient
       inkscape:collect="always"
       xlink:href="#linearGradient3743"
       id="linearGradient3819"
       gradientUnits="userSpaceOnUse"
       x1="219.5"
       y1="262.36218"
       x2="380.5"
       y2="262.36218" />
    <linearGradient
       inkscape:collect="always"
       xlink:href="#linearGradient3743"
       id="linearGradient3821"
       gradientUnits="userSpaceOnUse"
       gradientTransform="translate(10,-12.609057)"
       x1="66.151417"
       y1="281.86218"
       x2="222.94035"
       y2="281.86218" />
    <linearGradient
       inkscape:collect="always"
       xlink:href="#linearGradient3743"
       id="linearGradient3823"
       gradientUnits="userSpaceOnUse"
       gradientTransform="translate(18.848585,-9.9623613)"
       x1="66.151417"
       y1="281.86218"
       x2="222.94035"
       y2="281.86218" />
    <radialGradient
       inkscape:collect="always"
       xlink:href="#linearGradient3858"
       id="radialGradient3864"
       cx="203.92857"
       cy="282.36218"
       fx="203.92857"
       fy="282.36218"
       r="82.647743"
       gradientTransform="matrix(1,0,0,0.9697511,0,8.5411338)"
       gradientUnits="userSpaceOnUse" />
    <linearGradient
       inkscape:collect="always"
       xlink:href="#linearGradient3878"
       id="linearGradient3884"
       x1="439.30463"
       y1="712.11859"
       x2="439.40094"
       y2="470.69211"
       gradientUnits="userSpaceOnUse"
       gradientTransform="matrix(1,0,0,-1,0,1034.7244)" />
    <linearGradient
       inkscape:collect="always"
       xlink:href="#linearGradient3890"
       id="linearGradient3888"
       gradientUnits="userSpaceOnUse"
       x1="507.5192"
       y1="476.2648"
       x2="505.3902"
       y2="633.8161"
       gradientTransform="matrix(-0.999998,-9.5099394e-4,2.0180985e-3,-0.4712316,908.72341,611.01699)" />
    <radialGradient
       inkscape:collect="always"
       xlink:href="#linearGradient3858"
       id="radialGradient2248"
       gradientUnits="userSpaceOnUse"
       gradientTransform="matrix(1,0,0,0.9697511,0,8.5411338)"
       cx="203.92857"
       cy="282.36218"
       fx="203.92857"
       fy="282.36218"
       r="82.647743" />
  </defs>
  <sodipodi:namedview
     id="base"
     pagecolor="#ffffff"
     bordercolor="#666666"
     borderopacity="1.0"
     gridtolerance="10000"
     guidetolerance="10"
     objecttolerance="10"
     inkscape:pageopacity="0.0"
     inkscape:pageshadow="2"
     inkscape:zoom="1.4"
     inkscape:cx="366.83591"
     inkscape:cy="332.37932"
     inkscape:document-units="px"
     inkscape:current-layer="layer1"
     showgrid="false"
     showguides="true"
     inkscape:guide-bbox="true"
     inkscape:window-width="1440"
     inkscape:window-height="851"
     inkscape:window-x="0"
     inkscape:window-y="48" />
  <metadata
     id="metadata3668">
    <rdf:RDF>
      <cc:Work
         rdf:about="">
        <dc:format>image/svg+xml</dc:format>
        <dc:type
           rdf:resource="http://purl.org/dc/dcmitype/StillImage" />
      </cc:Work>
    </rdf:RDF>
  </metadata>
  <g
     inkscape:label="Layer 1"
     inkscape:groupmode="layer"
     id="layer1">
    <path
       style="fill:#dea479;fill-opacity:1;fill-rule:evenodd;stroke:#000000;stroke-width:0.5;stroke-linecap:butt;stroke-linejoin:miter;stroke-opacity:1;stroke-miterlimit:4;stroke-dasharray:none"
       d="M 330.21429,182.86218 L 339.5,32.771171 L 140.21429,22.862183 L 167.71429,182.14789 L 330.21429,182.86218 z "
       id="path3673"
       sodipodi:nodetypes="ccccc" />
    <path
       style="fill:#9a6b48;fill-opacity:1;fill-rule:evenodd;stroke:#000000;stroke-width:0.5;stroke-linecap:butt;stroke-linejoin:miter;stroke-opacity:1;stroke-miterlimit:4;stroke-dasharray:none"
       d="M 332.9786,180.38758 L 351.7654,135.33682 L 358.30165,21.881766 L 211.5649,16.953556 L 142.9786,20.387563 L 342.9786,30.387563 L 332.9786,180.38758 z "
       id="path3691"
       sodipodi:nodetypes="ccccccc" />
    <path
       style="fill:#000000;fill-opacity:1;fill-rule:evenodd;stroke:#000000;stroke-width:1px;stroke-linecap:butt;stroke-linejoin:miter;stroke-opacity:1"
       d="M 352.70624,85.40208 L 393.2472,89.442691 L 396.57354,56.534785 C 396.57354,56.534785 411.06701,64.234308 413.51333,77.067043 C 415.91616,89.671647 404.48144,97.024993 404.48144,97.024993 C 404.48144,97.024993 412.63008,100.87434 412.72726,113.26974 C 412.82443,126.02228 394.55323,134.00504 394.55323,134.00504 C 393.54307,118.25277 392.89005,118.73601 392.59419,104.35167 L 350.39006,97.453923 C 350.39006,97.453923 342.26243,97.190873 343.4818,90.892289 C 344.76787,84.249129 352.70624,85.40208 352.70624,85.40208 z "
       id="path3681"
       sodipodi:nodetypes="cccsczccczc" />
    <path
       style="fill:#d2edf8;fill-opacity:1;fill-rule:evenodd;stroke:#000000;stroke-width:0.5;stroke-linecap:butt;stroke-linejoin:miter;stroke-miterlimit:4;stroke-dasharray:none;stroke-opacity:1"
       d="M 314.66317,167.45392 L 322.52031,53.882491 L 163.53046,47.923101 L 183.63199,166.91295 L 314.66317,167.45392 z "
       id="path3671"
       sodipodi:nodetypes="ccccc" />
    <path
       style="fill:#000000;fill-opacity:1;fill-rule:evenodd;stroke:#000000;stroke-width:1px;stroke-linecap:butt;stroke-linejoin:miter;stroke-opacity:1"
       d="M 288,77.362183 L 298,142.36218 L 228,147.36218 L 223,87.362183 L 288,77.362183 z "
       id="path3717" />
    <path
       style="fill:#ffffff;fill-opacity:1;fill-rule:evenodd;stroke:#000000;stroke-width:1px;stroke-linecap:butt;stroke-linejoin:miter;stroke-opacity:1"
       d="M 228.35714,99.147897 L 233,142.36218 L 292.64286,139.14789 L 285.85714,90.933612 L 228.35714,99.147897 z "
       id="path3719"
       sodipodi:nodetypes="ccccc" />
    <path
       style="fill:#000000;fill-opacity:1;fill-rule:evenodd;stroke:#000000;stroke-width:1px;stroke-linecap:butt;stroke-linejoin:miter;stroke-opacity:1"
       d="M 190.5,126.86218 L 255.5,121.86218 L 245.5,56.862186 L 190.5,61.862186 L 190.5,126.86218 z "
       id="path3723" />
    <path
       style="fill:#ffffff;fill-rule:evenodd;stroke:#000000;stroke-width:1px;stroke-linecap:butt;stroke-linejoin:miter;stroke-opacity:1;fill-opacity:1"
       d="M 195,122.36218 L 250,117.36218 L 242.85714,73.076469 L 195,77.362183 L 195,122.36218 z "
       id="path3725"
       sodipodi:nodetypes="ccccc" />
    <g
       id="g3801"
       transform="translate(361.97348,-178.98985)">
      <path
         id="path3727"
         d="M 181.8958,317.93716 L 108.55966,355.64406 L 76.651417,219.32874 L 232.44035,182.86218 L 217.52505,206.89412 L 159.1042,220.56908 L 163.66252,240.0427 L 202.60975,230.92606 L 187.69446,254.95799 L 168.22084,259.51631 L 181.8958,317.93716 z "
         style="fill:none;fill-opacity:1;fill-rule:evenodd;stroke:url(#linearGradient3821);stroke-width:1px;stroke-linecap:butt;stroke-linejoin:miter;stroke-opacity:1" />
      <path
         id="path3769"
         d="M 190.74441,320.58383 L 117.40827,358.29073 L 85.500002,221.97541 L 241.28896,185.50885 L 226.37366,209.54079 L 167.95281,223.21575 L 172.51113,242.68937 L 211.45836,233.57273 L 196.54307,257.60466 L 177.06945,262.16298 L 190.74441,320.58383 z "
         style="fill:none;fill-opacity:1;fill-rule:evenodd;stroke:url(#linearGradient3823);stroke-width:1px;stroke-linecap:butt;stroke-linejoin:miter;stroke-opacity:1" />
    </g>
    <g
       id="g3789"
       transform="translate(353.89226,-180)">
      <g
         style="fill:none;fill-opacity:1;stroke:url(#linearGradient3809);stroke-opacity:1"
         transform="matrix(0.9750835,0.2218382,-0.2218382,0.9750835,21.64155,-59.430758)"
         id="g3739">
        <path
           style="fill:none;fill-opacity:1;fill-rule:evenodd;stroke:url(#linearGradient3811);stroke-width:1px;stroke-linecap:butt;stroke-linejoin:miter;stroke-opacity:1"
           d="M 220,312.36218 L 220,252.36218 L 280,192.36218 L 380,192.36218 L 380,332.36218 L 320,332.36218 L 320,312.36218 L 220,312.36218 z "
           id="path3731" />
        <path
           style="fill:none;fill-opacity:1;fill-rule:evenodd;stroke:url(#linearGradient3813);stroke-width:1px;stroke-linecap:butt;stroke-linejoin:miter;stroke-opacity:1"
           d="M 320,292.36218 L 260,292.36218 L 260,252.36218 L 300,212.36218 L 320,212.36218 L 320,292.36218 z "
           id="path3733" />
      </g>
      <g
         style="fill:none;fill-opacity:1;stroke:url(#linearGradient3815);stroke-opacity:1"
         transform="matrix(0.9750835,0.2218382,-0.2218382,0.9750835,25.029951,-53.383742)"
         id="g3773">
        <path
           style="fill:none;fill-opacity:1;fill-rule:evenodd;stroke:url(#linearGradient3817);stroke-width:1px;stroke-linecap:butt;stroke-linejoin:miter;stroke-opacity:1"
           d="M 220,312.36218 L 220,252.36218 L 280,192.36218 L 380,192.36218 L 380,332.36218 L 320,332.36218 L 320,312.36218 L 220,312.36218 z "
           id="path3775" />
        <path
           style="fill:none;fill-opacity:1;fill-rule:evenodd;stroke:url(#linearGradient3819);stroke-width:1px;stroke-linecap:butt;stroke-linejoin:miter;stroke-opacity:1"
           d="M 320,292.36218 L 260,292.36218 L 260,252.36218 L 300,212.36218 L 320,212.36218 L 320,292.36218 z "
           id="path3777" />
      </g>
    </g>
    <g
       id="g3797"
       transform="translate(353.89226,-180)">
      <path
         id="path3735"
         d="M 330.7259,327.39268 L 302.57024,190.25312 L 369.38881,217.36915 L 389.5,315.32598 L 330.7259,327.39268 z "
         style="fill:none;fill-opacity:1;fill-rule:evenodd;stroke:url(#linearGradient3805);stroke-width:1px;stroke-linecap:butt;stroke-linejoin:miter;stroke-opacity:1" />
      <path
         id="path3785"
         d="M 336.83364,333.21768 L 308.67798,196.07812 L 375.49655,223.19415 L 395.60774,321.15098 L 336.83364,333.21768 z "
         style="fill:none;fill-opacity:1;fill-rule:evenodd;stroke:url(#linearGradient3807);stroke-width:1px;stroke-linecap:butt;stroke-linejoin:miter;stroke-opacity:1" />
    </g>
    <text
       xml:space="preserve"
       style="font-size:36px;font-style:normal;font-weight:normal;fill:#000000;fill-opacity:1;stroke:none;stroke-width:1px;stroke-linecap:butt;stroke-linejoin:miter;stroke-opacity:1;font-family:Impact"
       x="190.72464"
       y="129.89967"
       id="text3825"
       transform="matrix(0.9965149,-8.3415492e-2,8.3415492e-2,0.9965149,0,0)"
       inkscape:transform-center-x="7.1428572"
       inkscape:transform-center-y="10.546629"><tspan
         sodipodi:role="line"
         id="tspan3827"
         x="190.72464"
         y="129.89967">FAI</tspan></text>
    <rect
       style="opacity:1;fill:#b9ecf5;fill-opacity:1;stroke:#1a7790;stroke-width:12;stroke-linecap:round;stroke-linejoin:round;stroke-miterlimit:4;stroke-dasharray:none;stroke-dashoffset:0;stroke-opacity:1"
       id="rect3868"
       width="512"
       height="340.61914"
       x="198"
       y="301.74304" />
    <text
       xml:space="preserve"
       style="font-size:24px;font-style:normal;font-weight:normal;fill:#000000;fill-opacity:1;stroke:none;stroke-width:1px;stroke-linecap:butt;stroke-linejoin:miter;stroke-opacity:1;font-family:Bitstream Vera Sans"
       x="291.9747"
       y="289.23254"
       id="text3850"><tspan
         sodipodi:role="line"
         id="tspan3852"
         x="291.9747"
         y="289.23254">Installing basetools...</tspan></text>
    <path
       style="fill:url(#linearGradient3888);fill-opacity:1;fill-rule:evenodd;stroke:none;stroke-width:1px;stroke-linecap:butt;stroke-linejoin:miter;stroke-opacity:1"
       d="M 656.18,340.74288 C 686.37085,330.46294 700,312.82816 700,312.82816 L 210.001,312.36218 L 209.61756,401.89621 C 209.61756,401.89621 308.85364,379.09601 335.14777,376.75889 C 362.44398,374.3327 414.38278,372.03144 436.43431,371.82462 C 458.51843,371.61748 509.90197,373.22315 548.83253,369.92081 C 586.76025,366.70354 625.08241,351.33156 656.18,340.74288 z "
       id="path3886"
       sodipodi:nodetypes="cccczzzz" />
    <path
       style="fill:url(#linearGradient3884);fill-opacity:1;fill-rule:evenodd;stroke:none;stroke-width:1px;stroke-linecap:butt;stroke-linejoin:miter;stroke-opacity:1"
       d="M 210,592.36218 L 210,402.36218 C 210,402.36218 257.3604,384.33045 344.62183,374.98654 C 431.88326,365.64263 470.20117,376.85583 559.04571,364.98654 C 647.89025,353.11725 700,317.50937 700,317.50937 L 700,592.36218 L 210,592.36218 z "
       id="path3876"
       sodipodi:nodetypes="cczzccc" />
    <g
       id="g3896"
       transform="translate(0.3676562,34.784632)">
      <path
         transform="matrix(1.0139279,0,0,1.0338187,-3.9117276,-9.9062552)"
         d="M 280 282.36218 A 76.071426 73.571426 0 1 1  127.85715,282.36218 A 76.071426 73.571426 0 1 1  280 282.36218 z"
         sodipodi:ry="73.571426"
         sodipodi:rx="76.071426"
         sodipodi:cy="282.36218"
         sodipodi:cx="203.92857"
         id="path3848"
         style="opacity:1;fill:url(#radialGradient2248);fill-opacity:1;stroke:#1a7790;stroke-width:13.15263844;stroke-linecap:round;stroke-linejoin:round;stroke-miterlimit:4;stroke-dasharray:none;stroke-dashoffset:0;stroke-opacity:1"
         sodipodi:type="arc" />
      <path
         sodipodi:nodetypes="ccczc"
         id="path3829"
         d="M 201.57143,208.29073 L 200.85714,279.00501 L 150.85714,229.00501 C 150.85714,229.00501 151.14027,224.43803 174.42857,214.7193 C 197.10714,205.25501 201.57143,208.29073 201.57143,208.29073 z "
         style="fill:#e4db49;fill-opacity:1;fill-rule:evenodd;stroke:#000000;stroke-width:1px;stroke-linecap:butt;stroke-linejoin:miter;stroke-opacity:1" />
      <path
         sodipodi:nodetypes="ccczc"
         id="path3836"
         d="M 258.78571,232.84506 L 204.95659,278.70839 L 209.87644,208.16907 C 209.87644,208.16907 213.50843,205.38589 236.12376,216.58168 C 258.147,227.48432 258.78571,232.84506 258.78571,232.84506 z "
         style="fill:#e4db49;fill-opacity:1;fill-rule:evenodd;stroke:#000000;stroke-width:1px;stroke-linecap:butt;stroke-linejoin:miter;stroke-opacity:1" />
      <path
         sodipodi:nodetypes="ccczc"
         id="path3838"
         d="M 276.05356,295.01152 L 206.57983,281.80466 L 264.63307,241.43361 C 264.63307,241.43361 269.07803,242.51982 274.52574,267.15965 C 279.83083,291.15436 276.05356,295.01152 276.05356,295.01152 z "
         style="fill:#e4db49;fill-opacity:1;fill-rule:evenodd;stroke:#000000;stroke-width:1px;stroke-linecap:butt;stroke-linejoin:miter;stroke-opacity:1" />
      <path
         sodipodi:nodetypes="ccczc"
         id="path3840"
         d="M 238.43924,348.19069 L 206.08109,285.31009 L 273.63273,306.20929 C 273.63273,306.20929 275.51291,310.38093 259.44823,329.84177 C 243.80417,348.79311 238.43924,348.19069 238.43924,348.19069 z "
         style="fill:#e4db49;fill-opacity:1;fill-rule:evenodd;stroke:#000000;stroke-width:1px;stroke-linecap:butt;stroke-linejoin:miter;stroke-opacity:1" />
      <path
         sodipodi:nodetypes="ccczc"
         id="path3842"
         d="M 172.34685,349.94854 L 202.25884,285.86819 L 227.08707,352.07665 C 227.08707,352.07665 224.93949,356.11711 199.71695,355.32797 C 175.15479,354.55949 172.34685,349.94854 172.34685,349.94854 z "
         style="fill:#e4db49;fill-opacity:1;fill-rule:evenodd;stroke:#000000;stroke-width:1px;stroke-linecap:butt;stroke-linejoin:miter;stroke-opacity:1" />
      <path
         sodipodi:nodetypes="ccczc"
         id="path3844"
         d="M 130.60531,300.43996 L 199.3705,283.93647 L 163.03047,344.59455 C 163.03047,344.59455 158.53174,345.43052 143.4415,325.20471 C 128.74633,305.50846 130.60531,300.43996 130.60531,300.43996 z "
         style="fill:#e4db49;fill-opacity:1;fill-rule:evenodd;stroke:#000000;stroke-width:1px;stroke-linecap:butt;stroke-linejoin:miter;stroke-opacity:1" />
      <path
         sodipodi:nodetypes="ccczc"
         id="path3846"
         d="M 142.81969,237.89181 L 198.65173,281.29462 L 128.58158,290.79074 C 128.58158,290.79074 125.1193,287.79906 131.49315,263.38239 C 137.70009,239.60501 142.81969,237.89181 142.81969,237.89181 z "
         style="fill:#e4db49;fill-opacity:1;fill-rule:evenodd;stroke:#000000;stroke-width:1px;stroke-linecap:butt;stroke-linejoin:miter;stroke-opacity:1" />
    </g>
    <path
       style="fill:#1db9d3;fill-opacity:1;fill-rule:evenodd;stroke:none;stroke-width:1px;stroke-linecap:butt;stroke-linejoin:miter;stroke-opacity:1"
       d="M 35.348068,828.27373 C 35.348068,828.27373 124.39194,813.95386 171.20593,825.14175 C 217.0638,836.10114 328.99023,862.49073 391.51561,886.25342 C 454.041,910.01611 479.89632,935.3448 479.89632,935.3448 C 479.89632,935.3448 516.23645,956.35773 509.49022,998.47678 C 502.7674,1040.4496 469.68915,1050.0373 439.99274,1055.3448 C 409.31694,1060.8273 363.6787,1060.7641 321.00288,1047.2636 C 277.40979,1033.4729 249.39417,985.08957 262.01304,969.08083 C 274.13487,953.70266 299.56381,943.27373 340.19579,940.29404 C 380.76653,937.31884 440.70541,967.77476 406.35822,966.25342 C 371.00289,964.68743 364.28716,963.37526 349.28716,968.37526 C 334.28716,973.37526 334.86838,981.30419 347.36838,991.30419 C 359.86838,1001.3042 387.36838,1003.8042 407.36838,1001.3042 C 427.36838,998.80419 433.77814,987.19174 429.38869,970.19251 C 424.92939,952.92277 363.13834,920.43476 320.09427,897.96915 C 276.64316,875.29111 272.16315,872.10066 259.49022,866.85747 C 246.43192,861.45485 220.85744,847.94806 172.41913,837.06051 C 124.18737,826.21939 35.348068,828.27373 35.348068,828.27373 z "
       id="path3874"
       sodipodi:nodetypes="czzczzzzzzzzzzzzzc" />
    <path
       style="fill:#9be5f1;fill-opacity:1;fill-rule:evenodd;stroke:none;stroke-width:1px;stroke-linecap:butt;stroke-linejoin:miter;stroke-opacity:1"
       d="M 37.835703,828.87589 C 37.835703,828.87589 73.287473,819.07895 153.28747,819.07895 C 233.28747,819.07895 337.37802,888.49175 425.51593,858.17031 C 514.55654,827.53833 536.55467,812.2017 590.26211,815.74901 C 643.91255,819.29256 575.49055,911.74219 513.09462,924.12971 C 450.89919,936.47742 405.93929,921.37092 338.44997,893.42413 C 271.32323,865.62748 241.32812,841.37589 180.06416,831.80482 C 118.9463,822.25658 37.835703,828.87589 37.835703,828.87589 z "
       id="path3872"
       sodipodi:nodetypes="czzzzzzc" />
    <path
       style="fill:#4fd0e6;fill-opacity:1;fill-rule:evenodd;stroke:none;stroke-width:1px;stroke-linecap:butt;stroke-linejoin:miter;stroke-opacity:1"
       d="M 22.907903,834.74294 C 22.907903,834.74294 76.542413,815.85462 156.54242,815.85462 C 236.54242,815.85462 366.54266,885.87317 444.93332,835.75308 C 522.86225,785.92821 612.2456,691.41029 623.82164,733.73279 C 635.47083,776.32272 479.75055,855.98993 417.35462,868.37745 C 355.15919,880.72516 290.41863,851.2706 247.76073,840.70233 C 204.87766,830.07828 200.13636,831.08049 174.22774,827.57034 C 148.43442,824.07581 22.907903,834.74294 22.907903,834.74294 z "
       id="path3870"
       sodipodi:nodetypes="czzzzzzc" />
  </g>
</svg>
